<?xml version="1.0" encoding="UTF-8" standalone="no"?>
<svg
   id="rewst-logo"
   viewBox="0 0 180 180"
   version="1.1"
   sodipodi:docname="rewst-icon.svg"
   inkscape:version="1.4.2 (ebf0e940d0, 2025-05-08)"
   width="180"
   height="180"
   xmlns:inkscape="http://www.inkscape.org/namespaces/inkscape"
   xmlns:sodipodi="http://sodipodi.sourceforge.net/DTD/sodipodi-0.dtd"
   xmlns="http://www.w3.org/2000/svg"
   xmlns:svg="http://www.w3.org/2000/svg">
  <sodipodi:namedview
     id="namedview26"
     pagecolor="#ffffff"
     bordercolor="#000000"
     borderopacity="0.25"
     inkscape:showpageshadow="2"
     inkscape:pageopacity="0.0"
     inkscape:pagecheckerboard="0"
     inkscape:deskcolor="#d1d1d1"
     inkscape:zoom="2.6284367"
     inkscape:cx="-48.317695"
     inkscape:cy="61.823822"
     inkscape:window-width="1920"
     inkscape:window-height="1123"
     inkscape:window-x="0"
     inkscape:window-y="0"
     inkscape:window-maximized="1"
     inkscape:current-layer="rewst-logo" />
  <defs
     id="defs1">
    <style
       id="style1">.cls-1{fill:#f9a100;}.cls-2{fill:#f75b58;}.cls-3{fill:#fff;}.cls-4{fill:#b80015;}.cls-5{fill:#d1d3d4;}.cls-6{fill:#238784;}.cls-7{fill:#2bb5b6;}.cls-8{fill:#606060;isolation:isolate;opacity:.61;}.cls-9{opacity:.15;}</style>
  </defs>
  <g
     id="Layer_1-2"
     transform="matrix(2.9218165,0,0,2.4084877,27.161749,19.738634)">
    <path
       d="m 31.868516,-5.415085 c -0.929219,0.016875 -1.89336,0.1475781 -2.88086,0.3925781 -3.88,0.99 -7.52125,3.5700781 -9.53125,6.5800781 -0.69,-0.31 -1.439765,-0.4310937 -2.259765,-0.3710937 -4.02,0.31 -6.970156,5.4100777 -8.4101566,10.0800785 -0.31,-0.12 -0.6294532,-0.249141 -0.9394531,-0.369141 -1.5700001,-0.49 -3.200625,-0.06008 -4.390625,1.169922 -2.45,2.46 -2.75976568,7.868906 -1.5097657,11.128906 0.63,1.66 0.3808594,3.321641 0.1308594,4.181641 -0.32,1.11 0.1894531,2.339218 1.1894531,2.949218 0.51,0.31 1.0097657,0.429688 1.5097657,0.429688 0.6299999,0 1.2597656,-0.179375 1.7597656,-0.609375 1.63,-1.29 3.5100786,-2.280078 5.5800786,-2.830078 6.899999,-1.9 11.481328,-0.679219 14.111328,0.800781 0.81,0.43 1.748359,0.43 2.568359,0 0.75,-0.43 1.311406,-1.231797 1.441406,-2.091797 0.63,-4.92 1.698672,-8.849765 2.888672,-10.759765 0.62,-0.98 1.690313,-2.090313 2.820313,-3.320313 1.32,-1.42 2.701171,-2.8296874 3.701171,-4.4296874 0,-0.06 0.05859,-0.059141 0.05859,-0.1191406 V 7.336868 c 2.89,-4.55 1.19,-7.93039057 -0.75,-9.9003906 -1.83,-1.935 -4.300234,-2.9021875 -7.08789,-2.8515625 z"
       style="fill:#1a1a1a"
       id="path43" />
    <path
       d="M 16.94,61.99 C 7.59,61.99 0,54.12 0,44.47 0,34.82 7.28,20.68 16.94,20.68 c 9.66,0 16.94,14.45 16.94,23.79 0,9.34 -7.59,17.52 -16.94,17.52 z m 0,-38.91 c -7.9,0 -14.55,13.16 -14.55,21.39 0,8.23 6.52,15.18 14.55,15.18 8.03,0 14.55,-6.82 14.55,-15.18 C 31.43,36.23 24.78,23.08 16.94,23.08 Z"
       id="path15"
       inkscape:label="head"
       style="fill:#1a1a1a"
       sodipodi:insensitive="true" />
    <path
       d="m 33.392948,63.761774 c -1.32,0 -2.63,-0.43 -3.76,-1.17 -1.44,-0.98 -2.38,-2.46 -2.63,-4.12 -0.31,-1.97 1.38,-12.17 3.89,-12.85 0.63,-0.18 1.51,0.06 1.88,1.17 0.69,1.91 2.26,3.38 3.76,4.86 1.57,1.54 3.01,3.01 3.32,4.73 0.31,1.66 -0.13,3.38 -1.13,4.73 -1,1.41 -2.51,2.34 -4.2,2.58 -0.38,0 -0.75,0.06 -1.13,0.06 z m -2.2,-14.88 c -0.94,2.4 -2.07,7.5 -1.82,9.1 0.19,1.04 0.75,1.97 1.63,2.58 0.88,0.61 1.94,0.86 3.07,0.68 1.07,-0.18 2.01,-0.74 2.63,-1.6 0.63,-0.86 0.88,-1.91 0.69,-3.01 -0.19,-0.98 -1.38,-2.21 -2.63,-3.44 -1.19,-1.23 -2.57,-2.58 -3.58,-4.3 z"
       id="path19"
       inkscape:label="ballsack"
       sodipodi:insensitive="true" />
    <path
       id="path21"
       inkscape:label="nose"
       d="m 31.622239,36.405919 c 0.03124,0.205232 0.06024,0.410118 0.07617,0.617188 0.0038,0.062 0.0089,0.123487 0.01172,0.185547 0.0098,0.214906 0.002,0.429531 0.002,0.644531 -0.0041,0.270098 -0.01104,0.542211 -0.04492,0.810547 -0.0067,0.04353 -0.01256,0.08575 -0.01953,0.128906 0.01213,0.0035 0.02445,0.0067 0.03711,0.0098 h 0.002 0.002 0.002 c 0.02943,0.005 0.06082,0.01437 0.09375,0.0293 h 0.002 c 3.555715,0.884174 6.148054,2.499057 7.720703,4.988281 -1.82,0.68 -3.570625,1.170469 -5.140625,1.480469 -1.975843,0.35698 -3.434079,0.293342 -4.341797,0.08398 -0.07134,0.149625 -0.143045,0.301188 -0.175781,0.464844 -0.0052,0.02561 -0.0081,0.05224 -0.01172,0.07813 -0.0191,0.225646 -0.006,0.452253 0.0098,0.677734 0.01092,0.142933 0.02475,0.284922 0.03711,0.427734 0.02592,0.299395 -0.0093,0.549276 -0.08398,0.746094 0.596004,0.110174 1.228697,0.158203 1.859375,0.158203 v 0.0098 c 1.06,0 2.189766,-0.13 3.259766,-0.25 2.069999,-0.37 4.45039,-1.109844 6.90039,-2.089844 l 1.19336,-0.486328 -0.560547,-1.111328 c -1.98757,-4.02355 -5.561576,-6.538973 -10.830078,-7.603516 z m 0.550781,6.328125 c -0.0047,0.0036 -0.0088,0.0068 -0.01367,0.0098 0.01739,0.01415 0.03348,0.02956 0.04883,0.04492 -0.01178,-0.01799 -0.02364,-0.03653 -0.03516,-0.05469 z m 0.132812,0.199219 c 0.0095,0.02602 0.01413,0.05248 0.01367,0.07813 0.0051,-0.01237 0.01075,-0.02466 0.01563,-0.03711 -0.0097,-0.01336 -0.01971,-0.02738 -0.0293,-0.04102 z m -1.662109,1.017578 v 0.002 h 0.002 c 0.0112,0.0017 0.02188,0.0012 0.0332,0.002 -0.0032,-0.0013 -0.0064,-0.0026 -0.0098,-0.0039 h -0.002 c -0.0051,-7.78e-4 -0.01409,-3.74e-4 -0.01953,0 h -0.002 z m -0.01953,0.08594 -0.002,0.002 h -0.002 v 0.002 0.002 0.002 0.002 h 0.002 v -0.002 l 0.002,-0.002 v -0.002 l 0.002,-0.002 v -0.002 z"
       sodipodi:insensitive="true" />
    <path
       d="m 23.27,50.07 c -2.13,0 -4.2,-0.68 -5.9,-1.97 -4.27,-3.2 -5.08,-9.16 -1.82,-13.34 3.26,-4.18 9.35,-4.98 13.61,-1.78 2.07,1.54 3.39,3.81 3.7,6.33 0.31,2.52 -0.31,5.04 -1.94,7.01 -1.57,2.03 -3.89,3.32 -6.46,3.63 -0.31,0.06 -0.75,0.12 -1.19,0.12 z m 0,-16.66 c -0.31,0 -0.63,0 -0.94,0.06 -1.94,0.25 -3.64,1.23 -4.83,2.7 -2.45,3.14 -1.82,7.62 1.32,10.02 1.57,1.17 3.45,1.66 5.39,1.41 1.94,-0.25 3.64,-1.23 4.83,-2.7 1.19,-1.54 1.69,-3.38 1.44,-5.29 C 30.23,37.7 29.23,36.04 27.72,34.88 26.4,33.9 24.9,33.4 23.27,33.4 Z"
       id="path23"
       inkscape:label="eye"
       sodipodi:insensitive="true" />
    <path
       d="m 21.14,42.81 c 1.14,0 2.07,-0.91 2.07,-2.03 0,-1.12 -0.93,-2.03 -2.07,-2.03 -1.14,0 -2.07,0.91 -2.07,2.03 0,1.12 0.93,2.03 2.07,2.03 z"
       id="path24"
       inkscape:label="dot"
       sodipodi:insensitive="true" />
  </g>
</svg>
